<?xml version="1.0" encoding="utf-8"?>
<!-- Generator: Adobe Illustrator 23.0.3, SVG Export Plug-In . SVG Version: 6.00 Build 0)  -->
<svg version="1.1" id="Layer_1" xmlns="http://www.w3.org/2000/svg" xmlns:xlink="http://www.w3.org/1999/xlink" x="0px" y="0px"
	 viewBox="0 0 24 24" style="enable-background:new 0 0 24 24;" xml:space="preserve">
<style type="text/css">
	.st0{fill:#3D2514;}
</style>
<g>
	<path class="st0" d="M10.5,19.1c-0.1,0-0.2,0-0.3,0.1c-0.1,0.1-0.1,0.2-0.1,0.3c0,0.1,0,0.2,0.1,0.3c0.1,0.1,0.2,0.1,0.3,0.1
		c0.1,0,0.2,0,0.3-0.1c0.1-0.1,0.1-0.2,0.1-0.3c0-0.1,0-0.2-0.1-0.3C10.7,19.1,10.6,19.1,10.5,19.1L10.5,19.1z"/>
	<path class="st0" d="M18.3,12.6L18,11.3c0,0,0.1,0,0.1,0H19c0.2,0,0.4-0.2,0.4-0.4V9.3c0-0.2-0.2-0.4-0.4-0.4h-0.8
		c-0.2,0-0.4,0.1-0.6,0.2l-0.1-0.7c0.5-0.1,0.8-0.5,0.8-1V6.8c0-0.5-0.4-1-1-1H15c-0.4,0-0.8,0.3-0.9,0.6h-0.9c-0.6,0-1,0.5-1,1
		s0.5,1,1,1h2v0.8c0,0.2,0.2,0.4,0.4,0.4s0.4-0.2,0.4-0.4V8.4h0.7l1,4.4l-1.9,3.3c-0.2,0.4-0.6,0.6-1,0.6h-4.6
		c-0.2-1.6-1.6-2.9-3.3-2.9c-0.7,0-1.4,0.2-2,0.7l0,0c-0.7,0.6-1.1,1.3-1.2,2.2H2.8c0-2.8,2.3-5.1,5.2-5.1h2.1
		c0.2,0,0.4,0.2,0.4,0.4v3.5c0,0.2,0.2,0.4,0.4,0.4h2.7c0.9,0,1.6-0.5,2-1.2c0.2-0.3,0.3-0.7,0.3-1.1v-1.3c0-0.2-0.2-0.4-0.4-0.4
		l0,0c-0.2,0-0.4,0.2-0.4,0.4v1.3c0,0.3-0.1,0.5-0.2,0.8c-0.3,0.5-0.8,0.8-1.4,0.8h-2.3v-3.1c0-0.3-0.1-0.6-0.4-0.8
		c0.2-0.2,0.4-0.6,0.4-0.9c0-0.4-0.2-0.7-0.4-1c0.1-0.1,0.1-0.2,0.1-0.4V4.9c0-0.4-0.4-0.8-0.8-0.8H6c-0.4,0-0.8,0.3-0.8,0.8v2.3
		H3.6c-0.2,0-0.4,0.2-0.4,0.4s0.2,0.4,0.4,0.4h1.7V9H2.4C2.2,9,2,9.2,2,9.4c0,0.2,0.2,0.4,0.4,0.4H5c-0.1,0.2-0.1,0.4-0.1,0.6
		c0,0.5,0.2,0.9,0.6,1.1c-2,0.9-3.4,3-3.4,5.4v0.3c0,0.2,0.2,0.4,0.4,0.4h2.2c0,0,0,0,0,0.1c0,0.6,0.2,1.1,0.6,1.5H3.6
		c-0.2,0-0.4,0.2-0.4,0.4s0.2,0.4,0.4,0.4h3.2c0,0,0,0,0.1,0c1.3,0,2.3-1,2.3-2.3c0,0,0,0,0-0.1h5.6c0.6,0,1.2-0.3,1.6-0.8h0.5
		c-0.1,0.3-0.2,0.6-0.2,0.9c0,0.6,0.2,1.1,0.6,1.5h-5.1c-0.2,0-0.4,0.2-0.4,0.4s0.2,0.4,0.4,0.4h6.7c0,0,0,0,0,0
		c1.3,0,2.3-1,2.3-2.3c0-0.3-0.1-0.6-0.2-0.9h0.6c0.2,0,0.4-0.2,0.4-0.4C22,14.3,20.4,12.6,18.3,12.6L18.3,12.6z M18.2,9.7h0.4v0.8
		h-0.4c-0.2,0-0.4-0.2-0.4-0.4C17.8,9.9,18,9.7,18.2,9.7L18.2,9.7z M8.5,4.9v0.9H7.6V4.9H8.5z M6,4.9h0.8v1.3c0,0.2,0.2,0.4,0.4,0.4
		h1.6c0.2,0,0.4-0.2,0.4-0.4V4.9h0.9V9l0,0H6V4.9z M6.2,10.9c-0.3,0-0.6-0.3-0.6-0.6s0.3-0.6,0.6-0.6h3.8c0.3,0,0.6,0.3,0.6,0.6
		s-0.3,0.6-0.6,0.6H6.2z M8.3,17.6c0,0.8-0.7,1.5-1.5,1.5c0,0,0,0,0,0h0c-0.8,0-1.4-0.7-1.4-1.5c0,0,0,0,0-0.1L8.3,17.6
		C8.3,17.6,8.3,17.6,8.3,17.6L8.3,17.6z M4.4,16.8c0.1-0.6,0.4-1.2,0.9-1.6l0,0c0.4-0.4,1-0.5,1.5-0.5c1.3,0,2.3,0.9,2.5,2.1H4.4z
		 M12.9,7.4c0-0.1,0.1-0.2,0.2-0.2H14v0.3c0,0.1,0,0.1,0,0.2h-0.9C13,7.7,12.9,7.6,12.9,7.4L12.9,7.4z M15.5,7.7H15
		c-0.1,0-0.2-0.1-0.2-0.2V6.8c0-0.1,0.1-0.2,0.2-0.2h2.3c0.1,0,0.2,0.1,0.2,0.2v0.7c0,0.1-0.1,0.2-0.2,0.2H15.5z M20.4,17.6
		c0,0.8-0.7,1.5-1.5,1.5c0,0,0,0,0,0h0c-0.8,0-1.4-0.7-1.4-1.5c0-0.3,0.1-0.6,0.3-0.9h2.4C20.3,17,20.4,17.3,20.4,17.6L20.4,17.6z
		 M20.3,16h-3.5l1.5-2.6c1.5,0,2.8,1.2,3,2.6H20.3z"/>
	<path class="st0" d="M15.5,11.2c0.2,0,0.4-0.2,0.4-0.4s-0.2-0.4-0.4-0.4l0,0c-0.2,0-0.4,0.2-0.4,0.4C15.1,11,15.3,11.2,15.5,11.2
		L15.5,11.2z"/>
</g>
</svg>
